<svg width="512" height="512" viewBox="0 0 512 512" fill="none" xmlns="http://www.w3.org/2000/svg">
  <rect width="512" height="512" rx="112" fill="#071018"/>
  <rect x="52" y="52" width="408" height="408" rx="88" fill="url(#paint0_linear)"/>
  <rect x="80" y="80" width="352" height="352" rx="68" fill="#0B0E11"/>
  <path d="M162 171C181.333 142.333 211.333 128 252 128H336C348.15 128 358 137.85 358 150V164C358 176.15 348.15 186 336 186H250C236.667 186 226 189.333 218 196C210 202.667 206 211.333 206 222C206 232.667 210 241.333 218 248C226 254.667 237.667 258 253 258H282C322.667 258 353.333 268.667 374 290C394.667 311.333 405 338.333 405 371V374C405 386.15 395.15 396 383 396H367C354.85 396 345 386.15 345 374V371C345 354.333 339.333 341 328 331C316.667 321 300.667 316 280 316H253C213 316 183 306.333 163 287C143 267.667 133 243.333 133 214C133 197.333 142.667 180.667 162 171Z" fill="white"/>
  <path d="M150 396C137.85 396 128 386.15 128 374V360C128 347.85 137.85 338 150 338H260C273.333 338 284 334.667 292 328C300 321.333 304 312.667 304 302C304 291.333 300 282.667 292 276C284 269.333 272.333 266 257 266H230C191.333 266 161.667 255.333 141 234C120.333 212.667 110 186 110 154V150C110 137.85 119.85 128 132 128H148C160.15 128 170 137.85 170 150V154C170 170.667 175.333 183.667 186 193C196.667 202.333 212 207 232 207H257C298.333 207 329.333 216.667 350 236C370.667 255.333 381 280 381 310C381 336 370.333 357 349 373C327.667 388.333 298 396 260 396H150Z" fill="white" fill-opacity="0.92"/>
  <circle cx="356" cy="158" r="34" fill="#5FA9FF"/>
  <circle cx="356" cy="158" r="15" fill="#071018"/>
  <path d="M143 354H221" stroke="#5FBF7A" stroke-width="24" stroke-linecap="round"/>
  <path d="M86 256H118" stroke="#5FA9FF" stroke-width="20" stroke-linecap="round"/>
  <path d="M394 256H426" stroke="#5FBF7A" stroke-width="20" stroke-linecap="round"/>
  <defs>
    <linearGradient id="paint0_linear" x1="76" y1="72" x2="445" y2="455" gradientUnits="userSpaceOnUse">
      <stop stop-color="#5FA9FF"/>
      <stop offset="0.48" stop-color="#5FBF7A"/>
      <stop offset="1" stop-color="#F4845F"/>
    </linearGradient>
  </defs>
</svg>
